<svg width="80" height="32" viewBox="0 0 80 32" fill="none" xmlns="http://www.w3.org/2000/svg">
<g opacity="0.4">
<path d="M26.5752 7.22424C25.5825 7.07415 25.1675 6.82516 25.0788 6.68787C25.0426 6.63086 25.0641 6.38303 25.0788 6.1643C25.1258 5.63607 25.1903 4.91238 24.8545 4.07001C24.0781 2.13977 21.7651 0.904136 17.7825 0.294465L15.902 0.00591803C15.8253 -0.00486148 15.7468 -0.000880566 15.6721 0.017578C15.5974 0.0360366 15.5282 0.06852 15.4696 0.112721C15.4111 0.156922 15.3644 0.211757 15.333 0.27333C15.3017 0.334903 15.2863 0.401704 15.2881 0.468989V19.4398C14.2208 18.696 13.016 18.1138 11.7246 17.7178L11.7273 0.468989C11.7271 0.401656 11.7101 0.335156 11.6774 0.274079C11.6446 0.213001 11.597 0.158801 11.5378 0.115218C11.4785 0.0716358 11.409 0.0397094 11.3341 0.0216425C11.2593 0.00357566 11.1807 -0.000201415 11.104 0.010572L9.22351 0.299119C5.24222 0.907627 2.93458 2.14326 2.15283 4.07582C1.82105 4.91354 1.88418 5.63607 1.93254 6.16313C1.94866 6.3842 1.97015 6.62853 1.93254 6.68322C1.84389 6.824 1.43018 7.07415 0.433512 7.22424C0.301297 7.24505 0.183221 7.30875 0.103353 7.40236C0.0234861 7.49598 -0.0121595 7.61245 0.00368277 7.72803L0.369037 10.4844C0.378065 10.5461 0.401278 10.6056 0.437304 10.6594C0.473331 10.7132 0.52144 10.7601 0.578789 10.7976C0.636138 10.835 0.701564 10.8621 0.771202 10.8772C0.840839 10.8924 0.913275 10.8953 0.98423 10.8858C3.2677 10.5716 4.83523 9.76415 5.66399 8.47616C6.31679 7.44996 6.23352 6.50636 6.18247 5.87924C6.14691 5.68382 6.14691 5.48477 6.18247 5.28935C6.19053 5.26724 6.35306 4.9019 7.4733 4.50748V17.2396C5.59952 17.4165 3.98094 18.1436 2.90637 19.3164C0.245462 22.2077 1.52286 26.7931 5.8104 29.7507C7.97567 31.2481 10.4458 31.9997 12.6984 31.9997C13.756 32.0084 14.8042 31.8273 15.7771 31.468C16.7223 31.1123 17.5524 30.5615 18.1948 29.8635C19.0366 28.9307 19.5124 27.7893 19.5528 26.6057V4.51097C20.6731 4.9054 20.8343 5.26724 20.8423 5.28819C20.8867 5.40453 20.8665 5.62327 20.8423 5.88389C20.7873 6.50985 20.708 7.45345 21.3595 8.47965C22.1076 9.64315 23.471 10.4204 25.4213 10.788C25.5681 10.8157 25.72 10.8164 25.8671 10.7901C26.0142 10.7638 26.1534 10.7111 26.2755 10.6353C26.3977 10.5596 26.5001 10.4625 26.5762 10.3503C26.6524 10.2381 26.7005 10.1133 26.7176 9.98405L27.0023 7.72803C27.0182 7.61278 26.983 7.4966 26.9036 7.40305C26.8243 7.30949 26.7069 7.24557 26.5752 7.22424ZM14.861 27.5668C13.8684 28.6442 10.9939 28.6139 8.45251 26.8629C8.32893 26.7779 8.20536 26.6895 8.08984 26.6011C7.87113 26.4321 7.66265 26.2535 7.46524 26.0659C5.74861 24.437 5.37654 22.5323 6.22546 21.6109C6.54539 21.2846 6.98158 21.0599 7.46524 20.9721C7.76753 20.9098 8.07731 20.879 8.38803 20.8802C8.474 20.8802 8.55056 20.8802 8.6231 20.8802C9.62782 20.9244 10.7131 21.2385 11.7232 21.7656C12.0395 21.9307 12.3424 22.1142 12.6299 22.3148C13.8643 23.1664 14.7791 24.2846 15.1377 25.3841C15.2109 25.6082 15.2608 25.8375 15.2868 26.0694V26.579C15.262 26.9377 15.1137 27.2818 14.861 27.5668Z" fill="url(#paint0_linear_1113_72827)"/>
</g>
<path d="M27.5683 7.22424C26.5757 7.07415 26.1606 6.82516 26.072 6.68787C26.0357 6.63086 26.0572 6.38303 26.072 6.1643C26.119 5.63607 26.1835 4.91238 25.8477 4.07001C25.0713 2.13977 22.7583 0.904136 18.7756 0.294465L16.8951 0.00591803C16.8184 -0.00486148 16.74 -0.000880566 16.6652 0.017578C16.5905 0.0360366 16.5214 0.06852 16.4628 0.112721C16.4042 0.156922 16.3576 0.211757 16.3262 0.27333C16.2948 0.334903 16.2795 0.401704 16.2813 0.468989V19.4398C15.2139 18.696 14.0091 18.1138 12.7177 17.7178L12.7204 0.468989C12.7203 0.401656 12.7032 0.335156 12.6705 0.274079C12.6378 0.213001 12.5902 0.158801 12.5309 0.115218C12.4717 0.0716358 12.4022 0.0397094 12.3273 0.0216425C12.2524 0.00357566 12.1739 -0.000201415 12.0972 0.010572L10.2167 0.299119C6.23539 0.907627 3.92774 2.14326 3.14599 4.07582C2.81422 4.91354 2.87735 5.63607 2.9257 6.16313C2.94182 6.3842 2.96331 6.62853 2.9257 6.68322C2.83705 6.824 2.42334 7.07415 1.42668 7.22424C1.29446 7.24505 1.17638 7.30875 1.09652 7.40236C1.01665 7.49598 0.981005 7.61245 0.996847 7.72803L1.3622 10.4844C1.37123 10.5461 1.39444 10.6056 1.43047 10.6594C1.46649 10.7132 1.5146 10.7601 1.57195 10.7976C1.6293 10.835 1.69473 10.8621 1.76437 10.8772C1.834 10.8924 1.90644 10.8953 1.97739 10.8858C4.26086 10.5716 5.82839 9.76415 6.65716 8.47616C7.30996 7.44996 7.22668 6.50636 7.17564 5.87924C7.14007 5.68382 7.14007 5.48477 7.17564 5.28935C7.1837 5.26724 7.34623 4.9019 8.46647 4.50748V17.2396C6.59268 17.4165 4.97411 18.1436 3.89954 19.3164C1.23863 22.2077 2.51602 26.7931 6.80357 29.7507C8.96883 31.2481 11.439 31.9997 13.6916 31.9997C14.7492 32.0084 15.7974 31.8273 16.7702 31.468C17.7154 31.1123 18.5456 30.5615 19.188 29.8635C20.0298 28.9307 20.5056 27.7893 20.546 26.6057V4.51097C21.6662 4.9054 21.8274 5.26724 21.8355 5.28819C21.8798 5.40453 21.8597 5.62327 21.8355 5.88389C21.7804 6.50985 21.7012 7.45345 22.3526 8.47965C23.1008 9.64315 24.4642 10.4204 26.4145 10.788C26.5613 10.8157 26.7132 10.8164 26.8603 10.7901C27.0074 10.7638 27.1465 10.7111 27.2687 10.6353C27.3908 10.5596 27.4933 10.4625 27.5694 10.3503C27.6455 10.2381 27.6937 10.1133 27.7107 9.98405L27.9955 7.72803C28.0114 7.61278 27.9761 7.4966 27.8968 7.40305C27.8175 7.30949 27.7001 7.24557 27.5683 7.22424ZM15.8542 27.5668C14.8615 28.6442 11.987 28.6139 9.44567 26.8629C9.3221 26.7779 9.19852 26.6895 9.083 26.6011C8.86429 26.4321 8.65581 26.2535 8.45841 26.0659C6.74178 24.437 6.36971 22.5323 7.21862 21.6109C7.53856 21.2846 7.97474 21.0599 8.45841 20.9721C8.7607 20.9098 9.07048 20.879 9.3812 20.8802C9.46716 20.8802 9.54373 20.8802 9.61626 20.8802C10.621 20.9244 11.7063 21.2385 12.7164 21.7656C13.0326 21.9307 13.3355 22.1142 13.6231 22.3148C14.8575 23.1664 15.7722 24.2846 16.1309 25.3841C16.2041 25.6082 16.254 25.8375 16.28 26.0694V26.579C16.2551 26.9377 16.1068 27.2818 15.8542 27.5668Z" fill="url(#paint1_linear_1113_72827)"/>
<g clip-path="url(#clip0_1113_72827)">
<path d="M40.928 9.23198C40.9103 9.103 40.8572 8.9982 40.7776 8.88534C40.7068 8.78054 40.6006 8.69187 40.4856 8.61932C40.3618 8.54676 40.229 8.49033 40.0698 8.45809C39.9194 8.42584 39.7601 8.40972 39.6008 8.41778C39.4504 8.42584 39.3089 8.45003 39.1762 8.48227C39.0434 8.51452 38.9284 8.56289 38.8311 8.62738C38.7338 8.69187 38.6541 8.76442 38.601 8.86116C38.548 8.94983 38.5126 9.06269 38.5126 9.19168C38.5126 9.34484 38.548 9.47382 38.6276 9.5625C38.7072 9.65118 38.8045 9.72373 38.9284 9.78016C39.0434 9.83659 39.1762 9.87689 39.3266 9.90914C39.477 9.94139 39.6185 9.96557 39.7601 10.0059C40.2998 10.1429 40.8484 10.28 41.3969 10.417C41.627 10.4734 41.8393 10.5621 42.034 10.683C42.2286 10.7959 42.4056 10.941 42.556 11.1183C42.6976 11.2957 42.8126 11.4972 42.8922 11.731C42.9719 11.9648 43.0161 12.2228 43.0161 12.521C43.0161 12.9241 42.9365 13.2949 42.7772 13.6254C42.6179 13.956 42.3967 14.2462 42.1048 14.4799C41.8128 14.7137 41.4677 14.8991 41.0607 15.0281C40.6537 15.1571 40.2113 15.2216 39.7159 15.2216C39.3708 15.2216 39.0434 15.1894 38.7426 15.1168C38.4329 15.0442 38.1498 14.9475 37.9021 14.8185C37.6455 14.6895 37.4243 14.5364 37.2385 14.359C37.0438 14.1817 36.9023 13.9801 36.7873 13.7544C36.5838 13.7544 36.3803 13.7544 36.1768 13.7544C36.1768 13.2304 36.1768 12.7064 36.1768 12.1825C36.8934 12.1744 37.6101 12.1744 38.3356 12.1663C38.3356 12.2711 38.3356 12.384 38.3356 12.4888C38.3356 12.65 38.3622 12.7951 38.4152 12.9241C38.4683 13.0611 38.5568 13.1659 38.6807 13.2707C38.7957 13.3675 38.9461 13.44 39.1142 13.4965C39.2912 13.5529 39.4947 13.5771 39.7247 13.569C40.0875 13.561 40.3529 13.4884 40.5476 13.3352C40.7334 13.1901 40.8218 12.9805 40.8218 12.7145C40.8218 12.5775 40.7953 12.4646 40.7245 12.3759C40.6537 12.2873 40.5741 12.2147 40.4679 12.1502C40.3618 12.0938 40.2556 12.0373 40.1229 11.997C39.999 11.9567 39.8751 11.9245 39.7513 11.8922C39.3 11.7794 38.8488 11.6504 38.3887 11.5295C38.1321 11.465 37.8755 11.3763 37.6366 11.2554C37.3978 11.1345 37.1854 10.9732 36.9996 10.7878C36.8138 10.6024 36.6634 10.3848 36.5572 10.1349C36.4422 9.88496 36.398 9.59475 36.398 9.27229C36.398 8.8934 36.4776 8.56289 36.6368 8.26462C36.7961 7.96634 37.0173 7.71644 37.3004 7.51491C37.5836 7.30531 37.9198 7.14408 38.3179 7.02316C38.7161 6.90224 39.1408 6.82969 39.6185 6.79744C39.9813 6.77326 40.3264 6.78938 40.636 6.83775C40.9546 6.89418 41.2288 6.96673 41.4766 7.07153C41.7243 7.17633 41.9367 7.31337 42.1048 7.46654C42.2729 7.6197 42.4144 7.78093 42.5029 7.95828C42.6976 7.94216 42.9011 7.92604 43.0957 7.90185C43.0957 8.45003 43.0957 9.00626 43.0957 9.55444C42.379 9.60281 41.6535 9.65118 40.9369 9.69148C40.9369 9.53832 40.9369 9.37709 40.9369 9.22392L40.928 9.23198ZM48.0859 15.1974C47.6789 15.1974 47.2896 15.141 46.918 15.0362C46.5464 14.9314 46.1924 14.7782 45.8739 14.5928C45.5466 14.3993 45.2546 14.1736 44.9891 13.9157C44.7237 13.6496 44.4937 13.3594 44.3079 13.045C44.1221 12.7306 43.9805 12.384 43.8743 12.0212C43.777 11.6585 43.7151 11.2715 43.7151 10.8684C43.7151 10.4654 43.7682 10.0784 43.8743 9.69954C43.9717 9.32066 44.1221 8.9579 44.3079 8.61932C44.4937 8.27268 44.7237 7.95828 44.9891 7.66001C45.2546 7.36174 45.5466 7.10377 45.8739 6.86999C46.1924 6.63621 46.5464 6.44274 46.918 6.28957C47.2896 6.13641 47.6789 6.02355 48.0859 5.96712C48.4929 5.91069 48.891 5.91875 49.2626 5.97518C49.6342 6.03967 49.9881 6.15253 50.3067 6.31376C50.634 6.48305 50.926 6.69264 51.1914 6.95867C51.4569 7.2247 51.6869 7.52297 51.8727 7.86961C52.0585 8.21625 52.2001 8.59513 52.3063 8.9982C52.4124 9.40933 52.4655 9.83659 52.4655 10.288C52.4655 10.7395 52.4124 11.1748 52.3063 11.594C52.2001 12.0132 52.0585 12.4082 51.8727 12.779C51.6869 13.1418 51.4569 13.4803 51.1914 13.7786C50.926 14.0769 50.634 14.3268 50.3067 14.5364C49.9881 14.746 49.6342 14.9072 49.2626 15.0201C48.891 15.1329 48.4929 15.1894 48.0859 15.1894V15.1974ZM48.0859 13.3514C48.4309 13.3433 48.7494 13.2627 49.0414 13.1015C49.3246 12.9402 49.5723 12.7306 49.7846 12.4646C49.9881 12.1986 50.1562 11.8922 50.2713 11.5375C50.3863 11.1909 50.4394 10.8201 50.4394 10.4251C50.4394 10.0301 50.3774 9.6673 50.2624 9.32872C50.1474 8.99014 49.9881 8.69993 49.7758 8.46615C49.5634 8.23237 49.3246 8.04696 49.0326 7.92604C48.7494 7.80512 48.4398 7.76481 48.0947 7.80512C47.7585 7.84542 47.44 7.94216 47.1568 8.11951C46.8737 8.29686 46.626 8.51452 46.4225 8.78054C46.219 9.04657 46.0509 9.34484 45.9359 9.68342C45.8208 10.022 45.7589 10.3686 45.7589 10.7395C45.7589 11.1022 45.812 11.4408 45.9359 11.7633C46.0509 12.0857 46.219 12.3598 46.4225 12.6016C46.626 12.8435 46.8737 13.0289 47.1568 13.1659C47.4488 13.303 47.7585 13.3675 48.0947 13.3594L48.0859 13.3514ZM59.3579 5.01587C60.4993 4.99975 61.6495 5.00781 62.7909 5.04006C62.7909 5.64466 62.7909 6.24927 62.7909 6.84581C62.5431 6.83775 62.2954 6.82969 62.0565 6.82969C62.0565 8.19206 62.0565 9.5625 62.0565 10.9249C62.0565 12.2873 62.0565 13.6496 62.0565 15.0201C61.3929 15.0201 60.7382 15.0201 60.0746 15.0201C59.4464 13.9398 58.8271 12.8677 58.1989 11.8036C57.5707 10.7475 56.9425 9.69954 56.3231 8.66769C56.3231 9.43352 56.3231 10.1913 56.3231 10.9571C56.3231 11.723 56.3231 12.4807 56.3231 13.2466C56.5709 13.2466 56.8275 13.2385 57.0841 13.2385C57.0841 13.835 57.0841 14.4316 57.0841 15.0281C55.9427 15.0281 54.7925 15.0362 53.66 15.0362C53.66 14.4558 53.66 13.8834 53.66 13.303C53.9077 13.2949 54.1554 13.2949 54.4032 13.2869C54.4032 12.2631 54.4032 11.2312 54.4032 10.2074C54.4032 9.18361 54.4032 8.15176 54.4032 7.12796C54.1554 7.15214 53.9166 7.16827 53.6688 7.19245C53.6688 6.61203 53.6688 6.03161 53.6688 5.45925C54.5801 5.36251 55.4826 5.2819 56.3939 5.20129C57.0133 6.24121 57.6415 7.28113 58.2608 8.34523C58.8802 9.41739 59.4995 10.4976 60.1277 11.5859C60.1277 10.7959 60.1277 10.0059 60.1277 9.21586C60.1277 8.42584 60.1277 7.63583 60.1277 6.84581C59.8711 6.85387 59.6145 6.85387 59.3579 6.85387C59.3579 6.24927 59.3579 5.64466 59.3579 5.04006V5.01587ZM70.3115 15.0281C70.3115 14.4961 70.3115 13.964 70.3115 13.432C70.0637 13.8753 69.8249 14.1978 69.5948 14.4074C69.3559 14.617 69.0993 14.7863 68.7985 14.9153C68.5065 15.0442 68.0995 15.1087 67.6129 15.1007C67.3652 15.1007 67.1174 15.0684 66.8697 15.012C66.622 14.9556 66.3831 14.8669 66.153 14.7621C65.923 14.6573 65.7018 14.5283 65.4806 14.3752C65.2594 14.222 65.0648 14.0527 64.8878 13.8592C64.4454 13.3675 64.1092 12.7951 63.8615 12.1502C63.6137 11.5053 63.4898 10.7959 63.4898 10.0381C63.4898 9.57056 63.5429 9.11912 63.6491 8.68381C63.7464 8.24849 63.8968 7.84542 64.0826 7.4746C64.2685 7.10377 64.4985 6.77326 64.7551 6.48305C65.0205 6.19284 65.3125 5.94293 65.6399 5.74946C65.9584 5.55599 66.3123 5.41894 66.6839 5.33027C67.0555 5.24965 67.4448 5.22547 67.8518 5.27384C68.3207 5.32221 68.7277 5.44313 69.0728 5.61242C69.4179 5.78171 69.7895 6.07192 70.1876 6.46692C70.63 6.51529 71.0724 6.57172 71.5148 6.62009C71.5148 7.29725 71.5148 7.98247 71.5148 8.65962C70.8954 8.60319 70.2849 8.55483 69.6744 8.4984C69.4886 8.19206 69.3205 7.95828 69.1613 7.81318C69.002 7.66807 68.8251 7.53909 68.6304 7.43429C68.4446 7.32949 68.1792 7.265 67.843 7.23276C67.5156 7.20051 67.1971 7.25694 66.9139 7.39398C66.6308 7.53103 66.3831 7.74062 66.1707 7.99859C65.9672 8.26462 65.7991 8.57901 65.6752 8.94983C65.5602 9.32066 65.4983 9.7076 65.4983 10.1026C65.4983 10.4976 65.5514 10.8765 65.6576 11.2312C65.7637 11.5859 65.923 11.9084 66.1442 12.1986C66.3654 12.4888 66.6131 12.7064 66.9051 12.8677C67.1971 13.0208 67.5067 13.1015 67.8341 13.1095C68.2588 13.1176 68.6216 12.9967 68.9401 12.7467C69.2498 12.4968 69.4798 12.1583 69.6125 11.723C69.0374 11.6988 68.4623 11.6746 67.8872 11.6504C67.8872 11.07 67.8872 10.4976 67.8872 9.9172C69.2763 10.0059 70.6742 10.0946 72.0722 10.1913C72.0722 10.9974 72.0722 11.8116 72.0722 12.6178C72.0722 13.4239 72.0722 14.2381 72.0722 15.0442C71.4794 15.0442 70.8866 15.0442 70.2938 15.0362L70.3115 15.0281ZM77.8498 9.03045C77.8321 8.90147 77.779 8.77248 77.6994 8.65156C77.6286 8.53064 77.5224 8.41778 77.4074 8.32911C77.2835 8.23237 77.1508 8.15982 76.9916 8.09533C76.8411 8.03083 76.6819 7.99053 76.5226 7.97441C76.3722 7.95828 76.2306 7.95828 76.0979 7.97441C75.9652 7.99053 75.8502 8.02277 75.7529 8.0792C75.6555 8.12757 75.5759 8.20012 75.5228 8.29686C75.4697 8.3936 75.4343 8.50646 75.4343 8.6435C75.4343 8.81279 75.4697 8.94983 75.5494 9.06269C75.629 9.16749 75.7263 9.26423 75.8502 9.33678C75.9652 9.40933 76.0979 9.47382 76.2483 9.52219C76.3988 9.57056 76.5403 9.62699 76.673 9.67536C77.2127 9.88496 77.7613 10.0946 78.3099 10.3041C78.5399 10.3928 78.7523 10.5057 78.9469 10.6427C79.1416 10.7798 79.3185 10.941 79.4689 11.1345C79.6105 11.3199 79.7255 11.5375 79.8051 11.7713C79.8848 12.0051 79.929 12.2711 79.929 12.5613C79.929 12.9563 79.8494 13.3191 79.6901 13.6416C79.5309 13.9721 79.3008 14.2462 79.0177 14.4799C78.7257 14.7137 78.3807 14.8911 77.9737 15.0281C77.5667 15.1571 77.1243 15.2297 76.6288 15.2297C76.2837 15.2297 75.9564 15.1894 75.6555 15.1168C75.3459 15.0442 75.0627 14.9314 74.815 14.7863C74.5584 14.6412 74.3372 14.4719 74.1514 14.2704C73.9568 14.0688 73.8152 13.835 73.7002 13.5851C73.4967 13.5771 73.2932 13.5771 73.0897 13.569C73.0897 12.9805 73.0897 12.384 73.0897 11.7874C73.8064 11.8197 74.523 11.86 75.2485 11.8922C75.2485 12.0132 75.2485 12.126 75.2485 12.2469C75.2485 12.4162 75.2751 12.5775 75.3282 12.7306C75.3813 12.8757 75.4697 13.0047 75.5936 13.1176C75.7086 13.2304 75.859 13.311 76.0271 13.3755C76.2041 13.44 76.4076 13.4723 76.6376 13.4803C77.0004 13.4884 77.2658 13.4158 77.4516 13.2707C77.6374 13.1256 77.7259 12.908 77.7259 12.642C77.7259 12.5049 77.6994 12.384 77.6286 12.2873C77.5578 12.1905 77.4782 12.1099 77.372 12.0373C77.2747 11.9729 77.1597 11.9084 77.0269 11.8519C76.9031 11.8036 76.7704 11.7552 76.6553 11.7149C76.2041 11.5537 75.7529 11.3844 75.2928 11.2231C75.0362 11.1264 74.7885 11.0055 74.5407 10.8523C74.3018 10.6992 74.0895 10.5057 73.9037 10.288C73.7179 10.0623 73.5675 9.80434 73.4613 9.51413C73.3463 9.22392 73.302 8.8934 73.302 8.52258C73.302 8.09533 73.3817 7.7245 73.5409 7.41011C73.7002 7.09571 73.9214 6.84581 74.2045 6.65234C74.4876 6.46692 74.8239 6.33794 75.222 6.27345C75.6202 6.20896 76.0448 6.20896 76.5226 6.26539C76.8854 6.31376 77.2304 6.39437 77.5401 6.51529C77.8586 6.62815 78.1418 6.7652 78.3807 6.92642C78.6284 7.07959 78.8407 7.25694 79.0089 7.44235C79.177 7.62777 79.3185 7.81318 79.407 8.00665C79.6017 8.02277 79.8051 8.0389 79.9998 8.05502C79.9998 8.59513 79.9998 9.13525 79.9998 9.68342C79.2831 9.64311 78.5576 9.58668 77.8409 9.53832C77.8409 9.37709 77.8409 9.21586 77.8409 9.05463L77.8498 9.03045Z" fill="white"/>
<path d="M36 16.7452C37.743 16.7452 39.486 16.7452 41.2379 16.7452C41.7511 16.7452 42.2023 16.8178 42.6004 16.9629C42.9986 17.108 43.3437 17.3014 43.6179 17.5433C43.8922 17.7851 44.1046 18.0673 44.2461 18.3897C44.3877 18.7122 44.4673 19.0508 44.4673 19.3974C44.4673 19.7118 44.4319 19.994 44.3611 20.2358C44.2904 20.4696 44.1842 20.6872 44.0426 20.8646C43.9099 21.0419 43.7418 21.2032 43.5383 21.3402C43.3348 21.4773 43.1048 21.5901 42.8482 21.6949C43.0694 21.8078 43.2729 21.9771 43.441 22.2108C43.6091 22.4366 43.733 22.7348 43.8214 23.0895C43.9276 23.5007 44.0426 23.9118 44.1576 24.331C44.4319 24.3471 44.7062 24.3632 44.9716 24.3874C44.9716 25.0001 44.9805 25.6127 44.9805 26.2335C44.0161 26.1529 43.0605 26.0803 42.105 26.0158C41.9722 25.2742 41.8395 24.5325 41.7157 23.7989C41.6714 23.541 41.6183 23.3072 41.5387 23.1218C41.4591 22.9283 41.3529 22.7671 41.2202 22.6462C41.0875 22.5172 40.9194 22.4285 40.7247 22.364C40.5301 22.2995 40.3 22.2673 40.0346 22.2592C39.7515 22.2511 39.4683 22.2431 39.194 22.235C39.194 22.8961 39.194 23.5571 39.194 24.2181C39.4949 24.2262 39.7957 24.2423 40.1054 24.2504C40.1054 24.7985 40.1054 25.3548 40.1054 25.903C38.734 25.8385 37.3714 25.8062 36.0088 25.7901C36.0088 25.25 36.0088 24.7018 36.0088 24.1617C36.3451 24.1617 36.6901 24.1698 37.0352 24.1698C37.0352 23.2105 37.0352 22.2511 37.0352 21.2918C37.0352 20.3325 37.0352 19.3732 37.0352 18.4139C36.6901 18.4139 36.3539 18.4139 36.0088 18.4139C36.0088 17.8657 36.0088 17.3256 36.0088 16.7775L36 16.7452ZM39.194 18.3978C39.194 19.1314 39.194 19.865 39.194 20.5986C39.6276 20.6066 40.0611 20.6147 40.4947 20.6227C40.7424 20.6308 40.9636 20.6147 41.1583 20.5744C41.3529 20.5341 41.5299 20.4776 41.6714 20.389C41.813 20.3003 41.9192 20.1874 41.9988 20.0504C42.0784 19.9133 42.1138 19.7521 42.1138 19.5586C42.1138 19.1959 41.9811 18.9218 41.7068 18.7203C41.4325 18.5187 41.0255 18.4139 40.5035 18.4059C40.07 18.3978 39.6364 18.3978 39.2029 18.3897L39.194 18.3978ZM51.0943 24.9275C51.4217 24.9437 51.749 24.9678 52.0853 24.984C51.9348 24.4922 51.7844 24.0085 51.634 23.5168C50.6165 23.4684 49.6079 23.412 48.5904 23.3556C48.44 23.8151 48.2896 24.2746 48.148 24.726C48.4931 24.7502 48.8381 24.7744 49.192 24.7985C49.192 25.3951 49.192 25.9836 49.192 26.5721C47.9357 26.4673 46.6881 26.3625 45.4317 26.2577C45.4317 25.6853 45.4317 25.1129 45.4317 24.5406C45.6795 24.5567 45.9272 24.5728 46.1661 24.589C46.6173 23.3072 47.0686 22.0174 47.511 20.7195C47.9622 19.4055 48.4134 18.0834 48.8647 16.7533C49.7406 16.7533 50.6077 16.7533 51.4836 16.7533C51.926 18.1237 52.3595 19.5022 52.8019 20.8807C53.2443 22.2673 53.6779 23.6619 54.1202 25.0646C54.3591 25.0726 54.598 25.0807 54.8369 25.0888C54.8369 25.7014 54.8369 26.3141 54.8369 26.9268C53.5805 26.8703 52.333 26.7978 51.0766 26.7172C51.0766 26.1206 51.0766 25.516 51.0766 24.9114L51.0943 24.9275ZM49.1124 21.7352C49.776 21.7594 50.4396 21.7916 51.112 21.8158C50.9439 21.2677 50.7758 20.7275 50.6077 20.1794C50.4396 19.6393 50.2715 19.0991 50.1034 18.551C49.9352 19.083 49.7671 19.6151 49.599 20.1471C49.4398 20.6792 49.2717 21.2032 49.1036 21.7272L49.1124 21.7352ZM55.5359 16.7694C56.8011 16.7694 58.0664 16.7694 59.3404 16.7694C59.7917 16.7694 60.2252 16.8258 60.6411 16.9467C61.0569 17.0677 61.4462 17.237 61.8001 17.4546C62.1629 17.6723 62.4902 17.9302 62.7822 18.2285C63.0742 18.5268 63.3308 18.8573 63.5343 19.2281C63.7378 19.5909 63.9059 19.9859 64.0209 20.4131C64.1359 20.8323 64.189 21.2757 64.189 21.7352C64.189 22.1947 64.1359 22.6381 64.0209 23.0734C63.9059 23.5087 63.7466 23.9118 63.5343 24.2987C63.3219 24.6857 63.0742 25.0323 62.7822 25.3548C62.4902 25.6772 62.1629 25.9594 61.8001 26.1932C61.4462 26.4269 61.0569 26.6204 60.6411 26.7575C60.2252 26.8945 59.7917 26.9671 59.3404 26.9751C58.0752 26.9993 56.8011 26.9912 55.5359 26.959C55.5359 26.3463 55.5359 25.7337 55.5359 25.1129C55.8013 25.121 56.0668 25.121 56.3233 25.1291C56.3233 24.0408 56.3233 22.9525 56.3233 21.8723C56.3233 20.784 56.3233 19.6957 56.3233 18.6155C56.0579 18.6155 55.7925 18.6155 55.5359 18.6074C55.5359 17.9947 55.5359 17.374 55.5359 16.7613V16.7694ZM58.491 18.6235C58.491 19.7118 58.491 20.8001 58.491 21.8884C58.491 22.9767 58.491 24.065 58.491 25.1532C58.7653 25.1532 59.0485 25.1452 59.3227 25.1452C59.6767 25.1371 60.0129 25.0485 60.3225 24.8711C60.6322 24.6937 60.9065 24.4519 61.1365 24.1456C61.3666 23.8473 61.5524 23.5007 61.6851 23.0976C61.8178 22.7026 61.8886 22.2753 61.8886 21.8158C61.8886 21.3644 61.8267 20.9533 61.6851 20.5583C61.5524 20.1713 61.3666 19.8247 61.1365 19.5425C60.9065 19.2604 60.6322 19.0346 60.3225 18.8654C60.004 18.7041 59.6767 18.6155 59.3227 18.6235C59.0485 18.6235 58.7653 18.6235 58.491 18.6235ZM65.3304 16.7613C66.7372 16.7613 68.1528 16.7533 69.5685 16.7533C69.5685 17.3256 69.5685 17.9061 69.5685 18.4784C69.2146 18.4865 68.8695 18.4865 68.5244 18.4945C68.5244 19.5264 68.5244 20.5502 68.5244 21.574C68.5244 22.5978 68.5244 23.6296 68.5244 24.6534C68.8695 24.6293 69.2146 24.6051 69.5685 24.5809C69.5685 25.1613 69.5685 25.7337 69.5685 26.3141C68.1528 26.4269 66.7372 26.5479 65.3304 26.6527C65.3304 26.0561 65.3304 25.4596 65.3304 24.863C65.6666 24.8469 66.0117 24.8227 66.3567 24.7985C66.3567 23.7506 66.3567 22.7106 66.3567 21.6627C66.3567 20.6147 66.3567 19.5748 66.3567 18.5268C66.0117 18.5348 65.6754 18.5348 65.3304 18.5429C65.3304 17.9464 65.3304 17.3498 65.3304 16.7533V16.7613ZM75.0983 26.0803C74.6471 26.1045 74.2224 26.0803 73.8154 25.9916C73.3996 25.903 73.0191 25.7659 72.6652 25.5886C72.3024 25.4032 71.9839 25.1694 71.6919 24.8953C71.4 24.6212 71.1522 24.3068 70.9487 23.9521C70.7452 23.5974 70.586 23.2185 70.4709 22.8074C70.3559 22.3963 70.3028 21.9609 70.3028 21.5014C70.3028 21.0419 70.3648 20.6066 70.4709 20.1874C70.586 19.7602 70.7452 19.3652 70.9487 19.0024C71.1522 18.6316 71.4 18.3011 71.6919 18.0028C71.9839 17.7045 72.3024 17.4546 72.6652 17.237C73.0191 17.0274 73.3996 16.8661 73.8154 16.7533C74.2224 16.6404 74.6559 16.584 75.0983 16.584C75.5496 16.584 75.9743 16.6404 76.3813 16.7533C76.7971 16.8661 77.1776 17.0193 77.5315 17.2208C77.8854 17.4224 78.2039 17.6642 78.4959 17.9464C78.7878 18.2285 79.0356 18.5429 79.2391 18.8895C79.4426 19.2362 79.6018 19.607 79.7169 20.0101C79.8319 20.4051 79.885 20.8243 79.885 21.2515C79.885 21.6788 79.8319 22.098 79.7169 22.493C79.6018 22.888 79.4426 23.2669 79.2391 23.6135C79.0356 23.9602 78.779 24.2826 78.4959 24.5648C78.2039 24.855 77.8854 25.1129 77.5315 25.3225C77.1776 25.5321 76.7882 25.7095 76.3813 25.8385C75.9743 25.9675 75.5407 26.0481 75.0983 26.0722V26.0803ZM75.0983 24.1778C75.4788 24.1617 75.8238 24.073 76.1424 23.9037C76.4609 23.7425 76.7263 23.5248 76.9564 23.2669C77.1864 23.0009 77.3634 22.7026 77.4872 22.3559C77.6111 22.0093 77.673 21.6465 77.673 21.2677C77.673 20.8807 77.6022 20.5179 77.4784 20.1794C77.3545 19.8408 77.1776 19.5425 76.9475 19.2846C76.7175 19.0266 76.452 18.8251 76.1335 18.6799C75.815 18.5348 75.4788 18.4623 75.0983 18.4704C74.7267 18.4784 74.3817 18.551 74.0631 18.7122C73.7446 18.8734 73.4792 19.083 73.2491 19.349C73.0279 19.6151 72.851 19.9295 72.7183 20.2842C72.5856 20.6389 72.5236 21.0178 72.5236 21.4128C72.5236 21.8078 72.5856 22.1786 72.7183 22.5252C72.851 22.8719 73.0279 23.1701 73.2491 23.42C73.4792 23.67 73.7446 23.8634 74.0631 24.0005C74.3728 24.1375 74.7179 24.1939 75.0983 24.1778Z" fill="white"/>
<path d="M52.7838 17.5558H53.4719V13.5827H52.672V14.3837H51.2441V12.5093H57.2652V14.3837H55.8287V13.5827H54.917V17.5558H55.6137V18.6693H52.7838V17.5558Z" fill="white" stroke="#0A0A0A" stroke-width="0.375"/>
<path d="M60.9706 18.6693C60.6656 18.6693 60.378 18.6306 60.0991 18.5609C59.8202 18.4835 59.5675 18.3829 59.3234 18.2514C59.0794 18.1198 58.8615 17.9573 58.6698 17.7716C58.4693 17.5859 58.3037 17.3769 58.1643 17.1448C58.0248 16.9126 57.9203 16.6727 57.8418 16.4096C57.7634 16.1465 57.7285 15.8756 57.7285 15.5893C57.7285 15.3029 57.7634 15.0321 57.8418 14.769C57.9203 14.5059 58.0248 14.2582 58.1643 14.0338C58.3037 13.8016 58.4693 13.6004 58.6698 13.407C58.8702 13.2212 59.0794 13.0587 59.3234 12.9272C59.5675 12.7956 59.8202 12.6873 60.0991 12.6176C60.378 12.5402 60.6656 12.5093 60.9706 12.5093C61.2757 12.5093 61.5633 12.548 61.8422 12.6176C62.121 12.6873 62.3825 12.7956 62.6178 12.9272C62.8618 13.0587 63.0797 13.2212 63.2715 13.407C63.4719 13.5927 63.6375 13.8016 63.777 14.0338C63.9164 14.266 64.021 14.5059 64.0994 14.769C64.1779 15.0321 64.2127 15.3029 64.2127 15.5893C64.2127 15.8756 64.1779 16.1465 64.0994 16.4096C64.021 16.6727 63.9164 16.9203 63.777 17.1448C63.6375 17.3769 63.4719 17.5781 63.2715 17.7716C63.071 17.9573 62.8531 18.1198 62.6178 18.2514C62.3738 18.3829 62.121 18.4835 61.8422 18.5609C61.5633 18.6383 61.2757 18.6693 60.9706 18.6693ZM60.9706 17.4388C61.2234 17.4388 61.4587 17.3924 61.6766 17.2918C61.8944 17.1912 62.0775 17.0596 62.2256 16.8894C62.3738 16.7191 62.4958 16.5257 62.583 16.3012C62.6701 16.0768 62.705 15.8369 62.705 15.5893C62.705 15.3339 62.6614 15.094 62.5742 14.8696C62.4871 14.6452 62.3651 14.444 62.2169 14.2814C62.06 14.1112 61.877 13.9796 61.6678 13.879C61.4587 13.7784 61.2234 13.732 60.9706 13.732C60.7179 13.732 60.4826 13.7784 60.2734 13.879C60.0642 13.9796 59.8812 14.1112 59.7243 14.2814C59.5675 14.4517 59.4454 14.6452 59.367 14.8696C59.2798 15.094 59.2363 15.3339 59.2363 15.5893C59.2363 15.8447 59.2798 16.0768 59.367 16.3012C59.4542 16.5257 59.5762 16.7191 59.7243 16.8894C59.8725 17.0596 60.0555 17.1912 60.2734 17.2918C60.4826 17.3924 60.7179 17.4388 60.9706 17.4388Z" fill="white" stroke="#0A0A0A" stroke-width="0.375"/>
<path d="M51.1804 10.3685H51.1906V10.3052H51.1787V10.3179H51.1575V10.2881H51.2468V10.3179H51.2256V10.3052H51.2121V10.3685H51.2224V10.3862H51.1804V10.3685ZM51.3006 10.388C51.2961 10.388 51.2919 10.3874 51.2878 10.3862C51.2838 10.385 51.28 10.3833 51.2764 10.3811C51.2729 10.3788 51.2697 10.3762 51.2668 10.3732C51.264 10.37 51.2616 10.3666 51.2595 10.3629C51.2575 10.3591 51.2559 10.355 51.2548 10.3507C51.2537 10.3464 51.2531 10.3419 51.2531 10.3372C51.2531 10.3324 51.2537 10.3279 51.2548 10.3236C51.2559 10.3193 51.2575 10.3152 51.2595 10.3114C51.2616 10.3076 51.264 10.3042 51.2668 10.3012C51.2697 10.298 51.2729 10.2954 51.2764 10.2932C51.28 10.291 51.2838 10.2893 51.2878 10.2881C51.2919 10.2869 51.2961 10.2863 51.3006 10.2863C51.305 10.2863 51.3093 10.2869 51.3133 10.2881C51.3174 10.2893 51.3212 10.291 51.3247 10.2932C51.3283 10.2954 51.3315 10.298 51.3343 10.3012C51.3372 10.3042 51.3397 10.3076 51.3417 10.3114C51.3438 10.3152 51.3454 10.3193 51.3465 10.3236C51.3476 10.3279 51.3482 10.3324 51.3482 10.3372C51.3482 10.3418 51.3476 10.3463 51.3465 10.3507C51.3454 10.355 51.3438 10.3591 51.3417 10.3629C51.3397 10.3666 51.3372 10.37 51.3343 10.3732C51.3315 10.3762 51.3283 10.3788 51.3247 10.3811C51.3212 10.3833 51.3174 10.385 51.3133 10.3862C51.3093 10.3874 51.305 10.388 51.3006 10.388ZM51.3006 10.3676C51.3043 10.3676 51.3078 10.3668 51.3109 10.3653C51.314 10.3636 51.3167 10.3614 51.319 10.3586C51.3212 10.3558 51.3229 10.3526 51.3241 10.3489C51.3254 10.3452 51.326 10.3413 51.326 10.3372C51.326 10.333 51.3254 10.329 51.3241 10.3253C51.3229 10.3216 51.3211 10.3184 51.3188 10.3156C51.3166 10.3128 51.3139 10.3106 51.3108 10.309C51.3077 10.3073 51.3043 10.3065 51.3006 10.3065C51.2969 10.3065 51.2935 10.3073 51.2903 10.309C51.2872 10.3106 51.2846 10.3128 51.2823 10.3156C51.2801 10.3184 51.2783 10.3216 51.277 10.3253C51.2758 10.329 51.2751 10.333 51.2751 10.3372C51.2751 10.3413 51.2758 10.3452 51.277 10.3489C51.2783 10.3526 51.2801 10.3558 51.2823 10.3586C51.2846 10.3614 51.2872 10.3636 51.2903 10.3653C51.2935 10.3668 51.2969 10.3676 51.3006 10.3676Z" fill="white"/>
</g>
<defs>
<linearGradient id="paint0_linear_1113_72827" x1="27.0061" y1="32" x2="-6.941" y2="11.4863" gradientUnits="userSpaceOnUse">
<stop stop-color="#9813B9"/>
<stop offset="0.494792" stop-color="#EF1AAC"/>
<stop offset="1" stop-color="#E7224C"/>
</linearGradient>
<linearGradient id="paint1_linear_1113_72827" x1="27.9992" y1="32" x2="-5.94783" y2="11.4863" gradientUnits="userSpaceOnUse">
<stop stop-color="#9813B9"/>
<stop offset="0.494792" stop-color="#EF1AAC"/>
<stop offset="1" stop-color="#E7224C"/>
</linearGradient>
<clipPath id="clip0_1113_72827">
<rect width="44" height="22" fill="white" transform="translate(36 5)"/>
</clipPath>
</defs>
</svg>
