<svg width="25" height="24" viewBox="0 0 25 24" fill="none" xmlns="http://www.w3.org/2000/svg">
<g id="vuesax/outline/edit">
<g id="edit">
<path id="Vector" d="M15.5 22.75H9.5C4.07 22.75 1.75 20.43 1.75 15V9C1.75 3.57 4.07 1.25 9.5 1.25H11.5C11.91 1.25 12.25 1.59 12.25 2C12.25 2.41 11.91 2.75 11.5 2.75H9.5C4.89 2.75 3.25 4.39 3.25 9V15C3.25 19.61 4.89 21.25 9.5 21.25H15.5C20.11 21.25 21.75 19.61 21.75 15V13C21.75 12.59 22.09 12.25 22.5 12.25C22.91 12.25 23.25 12.59 23.25 13V15C23.25 20.43 20.93 22.75 15.5 22.75Z" fill="white"/>
<path id="Vector_2" d="M8.99935 17.6901C8.38935 17.6901 7.82935 17.4701 7.41935 17.0701C6.92935 16.5801 6.71935 15.8701 6.82935 15.1201L7.25935 12.1101C7.33935 11.5301 7.71935 10.7801 8.12935 10.3701L16.0093 2.49006C17.9993 0.500059 20.0193 0.500059 22.0093 2.49006C23.0993 3.58006 23.5893 4.69006 23.4893 5.80006C23.3993 6.70006 22.9193 7.58006 22.0093 8.48006L14.1293 16.3601C13.7193 16.7701 12.9693 17.1501 12.3893 17.2301L9.37935 17.6601C9.24935 17.6901 9.11935 17.6901 8.99935 17.6901ZM17.0693 3.55006L9.18935 11.4301C8.99935 11.6201 8.77935 12.0601 8.73935 12.3201L8.30935 15.3301C8.26935 15.6201 8.32935 15.8601 8.47935 16.0101C8.62935 16.1601 8.86935 16.2201 9.15935 16.1801L12.1693 15.7501C12.4293 15.7101 12.8793 15.4901 13.0593 15.3001L20.9393 7.42006C21.5893 6.77006 21.9293 6.19006 21.9793 5.65006C22.0393 5.00006 21.6993 4.31006 20.9393 3.54006C19.3393 1.94006 18.2393 2.39006 17.0693 3.55006Z" fill="white"/>
<path id="Vector_3" d="M20.3515 9.82978C20.2815 9.82978 20.2115 9.81978 20.1515 9.79978C17.5215 9.05978 15.4315 6.96978 14.6915 4.33978C14.5815 3.93978 14.8115 3.52978 15.2115 3.40978C15.6115 3.29978 16.0215 3.52978 16.1315 3.92978C16.7315 6.05978 18.4215 7.74978 20.5515 8.34978C20.9515 8.45978 21.1815 8.87978 21.0715 9.27978C20.9815 9.61978 20.6815 9.82978 20.3515 9.82978Z" fill="white"/>
</g>
</g>
</svg>
